<svg xmlns:xlink="http://www.w3.org/1999/xlink" xmlns="http://www.w3.org/2000/svg" class="c-nav-desktop-drawer__sub-link__icon" width="64"  height="64" ><defs><symbol xmlns="http://www.w3.org/2000/svg" id="annualToll" viewBox="0 0 24 24">
    <path fill="#9c34e0" d="M17.05 4.5h-1.49V2.68c0-.38-.3-.68-.67-.68s-.68.3-.68.68v1.81H9.79V2.68c0-.37-.3-.67-.68-.67s-.67.3-.67.68V4.5H7.02a3.15 3.15 0 0 0-3.15 3.16v1.48h16.26V7.59c0-1.7-1.38-3.09-3.08-3.09M3.87 19.07c0 1.62 1.3 2.92 2.92 2.92h10.52a2.8 2.8 0 0 0 2.82-2.82v-8.69H3.87zm13.67-2.26h-3.2c-.37 0-.67-.3-.67-.67s.3-.68.67-.68h3.2c.37 0 .68.3.68.68s-.31.67-.68.67m-4.87-3.9h4.87c.37 0 .68.3.68.68s-.31.67-.68.67h-4.87c-.37 0-.67-.3-.67-.67s.3-.68.67-.68"></path>
  </symbol></defs>
                                        <use xlink:href="#annualToll"></use>
                                    </svg>