<svg version="1.1" id="Layer_1" xmlns="http://www.w3.org/2000/svg" class="c-nav-mobile__btn__icon c-nav-mobile__btn__icon--line" xmlns:xlink="http://www.w3.org/1999/xlink" x="0px" y="0px" viewBox="0 0 28 28" xml:space="preserve" width="28"  height="28" >
            <g fill="#555555">
                <path fill-rule="evenodd" clip-rule="evenodd" d="M13,7.5H8.5c-0.6,0-1,0.4-1,1V13c0,0.6,0.4,1,1,1H14V8.5C14,7.9,13.6,7.5,13,7.5z M8.5,6
                    C7.1,6,6,7.1,6,8.5V13c0,1.4,1.1,2.5,2.5,2.5H14h1.5V14V8.5C15.5,7.1,14.4,6,13,6H8.5z M19,7.5h4.5c0.6,0,1,0.4,1,1V13
                    c0,0.6-0.4,1-1,1H18V8.5C18,7.9,18.4,7.5,19,7.5z M16.5,8.5C16.5,7.1,17.6,6,19,6h4.5C24.9,6,26,7.1,26,8.5V13
                    c0,1.4-1.1,2.5-2.5,2.5H18h-1.5V14V8.5z M18,18h5.5c0.6,0,1,0.4,1,1v4.5c0,0.6-0.4,1-1,1H19c-0.6,0-1-0.4-1-1V18z M16.5,16.5H18
                    h5.5c1.4,0,2.5,1.1,2.5,2.5v4.5c0,1.4-1.1,2.5-2.5,2.5H19c-1.4,0-2.5-1.1-2.5-2.5V18V16.5z M8.5,18H14v5.5c0,0.6-0.4,1-1,1H8.5
                    c-0.6,0-1-0.4-1-1V19C7.5,18.4,7.9,18,8.5,18z M6,19c0-1.4,1.1-2.5,2.5-2.5H14h1.5V18v5.5c0,1.4-1.1,2.5-2.5,2.5H8.5
                    C7.1,26,6,24.9,6,23.5V19z" fill="#555555"></path>
            </g>
        </svg>