<svg xmlns:xlink="http://www.w3.org/1999/xlink" xmlns="http://www.w3.org/2000/svg" class="c-nav-desktop-drawer__root-link__icon" width="32"  height="32" ><defs><symbol xmlns="http://www.w3.org/2000/svg" id="categoryBank" viewBox="0 0 24 24">
    <path d="m11.37 2.39-1.31 4.05H8.1q-.52 0-1.01.1L8.12 3.4a1.96 1.96 0 0 1 2.47-1.27zm6.05 4.01-.13.4a5 5 0 0 0-1.88-.37h-4.16l1.2-3.7 3.72 1.2a1.95 1.95 0 0 1 1.25 2.48M15.9 7.74H8.1a3.9 3.9 0 0 0-3.91 3.92v6.4a3.9 3.9 0 0 0 3.92 3.92h7.78a3.9 3.9 0 0 0 3.92-3.92v-6.4a3.9 3.9 0 0 0-3.92-3.92m-.65 7.77h-6.5a.66.66 0 1 1 0-1.32h6.5a.66.66 0 1 1 0 1.32"></path>
  </symbol></defs>
                            <use xlink:href="#categoryBank"></use>
                        </svg>