<svg xmlns:xlink="http://www.w3.org/1999/xlink" xmlns="http://www.w3.org/2000/svg" class="c-nav-desktop-drawer__root-link__icon c-nav-desktop-drawer__root-link__icon--mini" aria-hidden="true" width="24"  height="24" ><defs><symbol xmlns="http://www.w3.org/2000/svg" viewBox="0 0 24 24" id="iconBlog">
    <path d="M18.54 11.05v2.38a2.2 2.2 0 0 1-2.22 2.21h-.13a.76.76 0 0 0-.76.77v2.86q0 .06-.04.13l-.11.09a.2.2 0 0 1-.24-.06L11.6 15.9a.8.8 0 0 0-.55-.23H5.78a2.2 2.2 0 0 1-2.2-2.21V6.72a2.2 2.2 0 0 1 2.2-2.2h10.1l1.4-1.4.03-.03-.18-.04a4 4 0 0 0-.8-.09H5.77a3.8 3.8 0 0 0-3.46 2.32q-.3.69-.29 1.44v6.7a3.73 3.73 0 0 0 3.75 3.76h4.93l3.19 3.32a1.7 1.7 0 0 0 1.25.54h.01a1.8 1.8 0 0 0 1.48-.78q.3-.45.3-1v-2.13a3.8 3.8 0 0 0 3.11-3.7V9.52z"></path>
    <path d="m11.36 9.07.06-.08L12.8 7.6l.05-.04H6.68a.78.78 0 0 0 0 1.56h4.66zm-5.22 2.2a.8.8 0 0 0-.16.84.8.8 0 0 0 .7.47H9.9l.57-1.5.01-.04h-3.8q-.31.01-.54.23M21.3 3.75l-.02-.02-.04-.01a2.3 2.3 0 0 0-3.2.02L12.06 9.7a1 1 0 0 0-.16.24l-1.33 3.62a.7.7 0 0 0 .16.7q.09.1.21.16.12.04.23.05h.26l3.65-1.38q.15-.04.25-.15l5.96-5.96a2.3 2.3 0 0 0 0-3.23Zm-.7 1.6a1 1 0 0 1-.3.62l-5.81 5.84-2.14.8.8-2.14 5.86-5.78a.9.9 0 0 1 1.32 0 1 1 0 0 1 .28.66"></path>
  </symbol></defs>
                <use xlink:href="#iconBlog"></use>
            </svg>