<svg xmlns:xlink="http://www.w3.org/1999/xlink" xmlns="http://www.w3.org/2000/svg" class="c-nav-desktop-drawer__sub-link__icon" width="64"  height="64" ><defs><symbol xmlns="http://www.w3.org/2000/svg" xml:space="preserve" id="cardToCard" x="0" y="0" version="1.1" viewBox="0 0 24 24">
    <g fill="#FF8700">
      <path d="M21.9 5.1v12.6a3 3 0 0 1-3 3h-1.6c1.6-.9 2.5-2.8 2-4.7L16.1 4c-.2-.7-.6-1.4-1.1-1.9h4c1.6 0 2.9 1.3 2.9 3"></path>
      <path d="m18.3 16.3-3.2-12c-.4-1.6-2.1-2.5-3.6-2.1L4.3 4.1c-1.6.4-2.6 2-2.1 3.6l3.2 12c.4 1.6 2.1 2.5 3.6 2.1l7.2-1.9c1.6-.4 2.6-2 2.1-3.6m-10 .7h-.2c-.3 0-.6-.2-.6-.5L5.3 8c-.1-.4.1-.8.4-.9.4-.1.7.1.8.5l2.3 8.5c.1.4-.1.8-.5.9m1.9-4.3H10c-.3 0-.6-.2-.6-.5L8 7.2c-.1-.3.2-.7.5-.8.4-.1.7.1.8.5l1.3 5c.2.3 0 .7-.4.8"></path>
    </g>
  </symbol></defs>
                                        <use xlink:href="#cardToCard"></use>
                                    </svg>