<svg xmlns:xlink="http://www.w3.org/1999/xlink" xmlns="http://www.w3.org/2000/svg" class="c-nav-desktop-drawer__sub-link__icon" width="64"  height="64" ><defs><symbol xmlns="http://www.w3.org/2000/svg" id="carDocuments" viewBox="0 0 24 24">
    <path fill="#9c34e0" d="M21.57 18.85V5.6a2.94 2.94 0 0 0-2.93-2.94h-6.46a6.4 6.4 0 0 1 1.75 4.86 6.57 6.57 0 0 1-7.65 5.93v4.45a4.1 4.1 0 0 0 4.08 4.08h8.08c1.73 0 3.13-1.4 3.13-3.13M18.4 13.8c0 .38-.3.7-.68.7H13.6c-.38 0-.68-.32-.68-.7s.3-.69.68-.69h4.1a.7.7 0 0 1 .7.7m0 3.4c0 .37-.3.7-.68.7h-6.79c-.38 0-.68-.32-.68-.7s.3-.68.68-.68h6.79c.38 0 .68.3.68.68"></path>
    <path fill="#9c34e0" d="M6.78 4.67q.33-.1.7-.1a2.6 2.6 0 0 1 2.46 1.87h2.58a5.08 5.08 0 0 0-10.09 0h2.59c.24-.86.9-1.53 1.76-1.77M5.03 7.81h-2.6a5.1 5.1 0 0 0 4.35 4.35V9.57a2.6 2.6 0 0 1-1.75-1.76m3.13 1.76v2.6a5.1 5.1 0 0 0 4.36-4.36H9.93a2.6 2.6 0 0 1-1.77 1.76"></path>
    <path fill="#9c34e0" d="M7.48 8.31a1.2 1.2 0 1 0 0-2.39 1.2 1.2 0 0 0 0 2.39"></path>
  </symbol></defs>
                                        <use xlink:href="#carDocuments"></use>
                                    </svg>