<svg xmlns:xlink="http://www.w3.org/1999/xlink" xmlns="http://www.w3.org/2000/svg" class="c-nav-desktop-drawer__sub-link__icon" width="64"  height="64" ><defs><symbol xmlns="http://www.w3.org/2000/svg" id="carTax" viewBox="0 0 24 24">
    <path fill="#9c34e0" d="M16.75 2.05H11.8a6.13 6.13 0 0 1-6.04 10.59v8.19c0 .43.24.83.63 1.04q.28.13.55.13.36 0 .66-.2l1.92-1.32c.35-.24.81-.24 1.17 0l1.91 1.32q.32.2.66.2.37 0 .68-.2l1.91-1.32c.36-.24.82-.24 1.17 0l1.92 1.32a1.2 1.2 0 0 0 1.21.07c.39-.21.63-.61.63-1.04V4.95c0-1.6-1.3-2.9-2.9-2.9zm-4.91 11.74a.75.75 0 1 1 0 1.5c-.42 0-.75-.33-.75-.75s.34-.75.75-.75m.3 4.75a.6.6 0 0 1-.81.07.6.6 0 0 1-.07-.81l3.11-3.71c.2-.24.57-.27.81-.07s.27.57.07.81zm2.53.28c-.41 0-.75-.33-.75-.75s.33-.75.75-.75a.75.75 0 1 1 0 1.5"></path>
    <path fill="#9c34e0" d="M7.52 4.62q.31-.1.69-.1c.38 0 .46.03.68.09.85.24 1.51.91 1.75 1.75h2.56a5 5 0 0 0-5.68-4.31 5 5 0 0 0-4.3 4.31h2.56a2.5 2.5 0 0 1 1.74-1.74m-1.73 3.1H3.22c.3 2.24 2.07 4 4.3 4.3V9.46a2.5 2.5 0 0 1-1.73-1.74m3.09 1.75v2.56a5 5 0 0 0 4.31-4.3h-2.56c-.24.85-.91 1.5-1.75 1.74"></path>
    <path fill="#9c34e0" d="M8.2 8.22a1.18 1.18 0 1 0 0-2.36 1.18 1.18 0 0 0 0 2.36"></path>
  </symbol></defs>
                                        <use xlink:href="#carTax"></use>
                                    </svg>