<svg xmlns:xlink="http://www.w3.org/1999/xlink" xmlns="http://www.w3.org/2000/svg" class="c-nav-desktop-drawer__sub-link__icon" width="64"  height="64" ><defs><symbol xmlns="http://www.w3.org/2000/svg" id="drivingLicense" viewBox="0 0 24 24">
    <path fill="#9c34e0" d="M7 2.63a5 5 0 1 0 0 10 5 5 0 0 0 0-10M9.34 8.7H6.69a.67.67 0 0 1-.67-.67V5.38c0-.37.3-.67.67-.67s.68.3.68.67v1.98h1.97a.67.67 0 0 1 0 1.34"></path>
    <path fill="#9c34e0" d="M19.16 6.42h-5.93q.07.36.1.73a6.34 6.34 0 0 1-8.83 6.31v5c0 1.6 1.3 2.91 2.91 2.91h11.46c1.73 0 3.13-1.4 3.13-3.13V9.26a2.84 2.84 0 0 0-2.84-2.84m-6.39 12.41H7.92a.58.58 0 0 1 0-1.16h4.85a.58.58 0 0 1 0 1.16m0-2.58H9.92a.58.58 0 0 1 0-1.16h2.85a.58.58 0 0 1 0 1.16m4.73-2.75a1.38 1.38 0 0 1 0 2.76 1.38 1.38 0 0 1 0-2.76m-2 5.33c0-1.1.9-2 2-2s2 .9 2 2z"></path>
  </symbol></defs>
                                        <use xlink:href="#drivingLicense"></use>
                                    </svg>