<svg xmlns:xlink="http://www.w3.org/1999/xlink" xmlns="http://www.w3.org/2000/svg" class="c-nav-desktop-drawer__sub-link__icon" width="64"  height="64" ><defs><symbol xmlns="http://www.w3.org/2000/svg" id="electricity" viewBox="0 0 24 24">
    <path fill="#36a9e2" d="M14.44 19.24c.4-.11.74.29.59.67C14.56 21.13 13.38 22 12 22s-2.56-.87-3.03-2.09c-.15-.38.19-.78.59-.67a9.4 9.4 0 0 0 4.88 0m3.33-13.99-.02-.02a6.7 6.7 0 0 0-11.5 0l-.02.02a6.7 6.7 0 0 0 .98 8.25 3.8 3.8 0 0 1 1.07 2.72v.43a1 1 0 0 0 .55.9 7.8 7.8 0 0 0 6.34 0 1 1 0 0 0 .55-.9v-.43c0-1.01.35-2 1.07-2.72a6.7 6.7 0 0 0 .98-8.25m-3.51 4.94-1.67 3.12a.68.68 0 0 1-1.2-.63l1.14-2.12h-2.21a.7.7 0 0 1-.58-.33.7.7 0 0 1-.02-.67l1.67-3.12a.67.67 0 0 1 1.19.63l-1.13 2.12h2.21q.38 0 .58.33c.12.2.13.46.02.67"></path>
  </symbol></defs>
                                        <use xlink:href="#electricity"></use>
                                    </svg>