<svg xmlns:xlink="http://www.w3.org/1999/xlink" xmlns="http://www.w3.org/2000/svg" class="c-nav-desktop-drawer__sub-link__icon" width="64"  height="64" ><defs><symbol xmlns="http://www.w3.org/2000/svg" id="freeway" viewBox="0 0 24 24">
    <path fill="#9c34e0" d="M12.92 21.8a2.3 2.3 0 1 0 0-4.62 2.3 2.3 0 0 0 0 4.61"></path>
    <path fill="#9c34e0" d="m19.85 12.53-4.01-1.38a3 3 0 0 1-1.04-.64l-3.62-3.13a2 2 0 0 0-1.33-.5H5.14a3.07 3.07 0 0 0-3.08 3.07v6.19c0 1.7 1.38 3.08 3.08 3.08h4.3a3.5 3.5 0 0 1 6.96 0h3.49c1.12 0 2.05-.93 2.05-2.05v-1.73c0-1.32-.84-2.5-2.1-2.91m.75 3.46h-2.04c-.37 0-.68-.31-.68-.7s.3-.69.69-.69h2.03c.38 0 .68.3.68.7s-.3.68-.68.68m.66-6.24a6.85 6.85 0 0 1-6.84-6.84.69.69 0 1 1 1.37 0 5.47 5.47 0 0 0 5.47 5.46.69.69 0 1 1 0 1.38"></path>
    <path fill="#9c34e0" d="M21.25 6.97a4.1 4.1 0 0 1-4.07-4.07.69.69 0 1 1 1.37 0 2.7 2.7 0 0 0 2.7 2.68.69.69 0 1 1 0 1.38Z"></path>
  </symbol></defs>
                                        <use xlink:href="#freeway"></use>
                                    </svg>