<svg xmlns:xlink="http://www.w3.org/1999/xlink" xmlns="http://www.w3.org/2000/svg" class="c-nav-desktop-drawer__sub-link__icon" width="64"  height="64" ><defs><symbol xmlns="http://www.w3.org/2000/svg" id="gas" viewBox="0 0 24 24">
    <path fill="#36a9e2" d="M15.71 4.61V3.02a1 1 0 0 0-1-1h-1.46v1.25h-2.5V2.03H9.3a1 1 0 0 0-1 1V4.6a4 4 0 0 0-3.27 3.92v9.13c0 .81.49 1.51 1.2 1.82v1.5a1 1 0 0 0 1 1h9.57a1 1 0 0 0 1-1v-1.5c.7-.3 1.2-1 1.2-1.82V8.53a4 4 0 0 0-3.3-3.93Zm-2.65 11.92q.32-.55.3-1.16c0-.66-.31-1.25-.66-1.69-.4-.5-.74-.7-.74-.7a1.8 1.8 0 0 1-.64 1.2 2 2 0 0 0-.59 2.28 2.6 2.6 0 0 1-1.24-1.29c-.26-.6-.26-1.39.33-2.47a2.7 2.7 0 0 0 .1-2.52c1.28.3 1.27 1.37 1.27 1.37 0-1.26.64-2.46 1.68-2.88-.01.09-.24.65-.01 1.5.2.76.68 1.41.99 1.88.42.64.85 1.25.85 2.1 0 1.36-1 2.08-1.64 2.37Z"></path>
  </symbol></defs>
                                        <use xlink:href="#gas"></use>
                                    </svg>