<svg xmlns:xlink="http://www.w3.org/1999/xlink" xmlns="http://www.w3.org/2000/svg" class="c-nav-mobile__btn__icon c-nav-mobile__btn__icon--line" width="32" height="32" viewBox="0 0 32 32" fill="none">
            <path fill-rule="evenodd" d="M15.1819 3.22818c.3495-.20411.7469-.31168 1.1516-.31168.4047 0 .8022.10757 1.1516.31168l.0118.00688-.0001.00011 11.8934 7.24003c.3538.2154.466.6768.2506 1.0306-.2154.3538-.6768.466-1.0306.2506l-.9666-.5884v10.9673c.0307 1.6166-.575 3.1806-1.6868 4.3548-1.1136 1.1762-2.6454 1.8666-4.2642 1.9222l-.0128.0004H10.9875l-.0128-.0004c-1.62683-.0555-3.16562-.7523-4.28052-1.9383-1.11245-1.1834-1.71272-2.758-1.67059-4.3813V11.1679l-.96675.5885c-.35381.2154-.81524.1032-1.03062-.2506-.21538-.3538-.10316-.8152.25065-1.0306L15.1702 3.23517l.0117-.0071v.00011Zm1.5418 1.2924 9.4199 5.73432v11.8954l.0001.0076c.0249 1.2253-.4335 2.411-1.2761 3.3009-.8398.8869-1.9938 1.4088-3.214 1.4539h-10.64c-1.22639-.0451-2.38575-.5718-3.2265-1.4661-.84356-.8974-1.29788-2.092-1.2638-3.3231l.00029-.0104V10.2548l9.41981-5.73422c.1187-.06817.2532-.10408.3901-.10408.137 0 .2715.03591.3902.10408ZM11.4535 22.1925c-.4142 0-.75.3358-.75.75 0 .4143.3358.75.75.75h9.2933c.4142 0 .75-.3357.75-.75 0-.4142-.3358-.75-.75-.75h-9.2933Z" clip-rule="evenodd" fill="#555555"></path>
        </svg>