<svg xmlns:xlink="http://www.w3.org/1999/xlink" xmlns="http://www.w3.org/2000/svg" class="default-footer__social-link__icon" aria-hidden="true" width="24"  height="24" ><defs><symbol xmlns="http://www.w3.org/2000/svg" xml:space="preserve" viewBox="0 0 24 24" id="iconInstagram">
    <path d="M16.5 2h-9c-1.4 0-2.8.6-3.9 1.6S2 6.1 2 7.5v8.9c0 1.5.6 2.9 1.6 3.9s2.4 1.6 3.9 1.6h8.9c1.5 0 2.9-.6 3.9-1.6s1.6-2.4 1.6-3.9V7.5A5.46 5.46 0 0 0 16.5 2m4 14.5c0 1.1-.4 2.1-1.2 2.8-.8.8-1.8 1.2-2.8 1.2h-9c-1.1 0-2.1-.4-2.8-1.2-.8-.8-1.2-1.8-1.2-2.8v-9c0-1.1.4-2.1 1.2-2.8s1.8-1.2 2.8-1.2h8.9c1.1 0 2.1.4 2.8 1.2.8.8 1.2 1.8 1.2 2.8z"></path>
    <path d="M7.3 10.1C6.9 11 6.8 12 7 13a5.1 5.1 0 0 0 6.9 3.7c.9-.4 1.7-1 2.3-1.9.6-.8.9-1.8.9-2.8q0-2.1-1.5-3.6T12 6.9c-1 0-2 .3-2.8.9-.8.5-1.5 1.3-1.9 2.3m2.2-.6a4 4 0 0 1 1.8-1c.7-.1 1.4-.1 2.1.2.6.3 1.2.7 1.6 1.3s.6 1.3.6 2c0 1-.4 1.9-1.1 2.5-.7.7-1.6 1.1-2.5 1.1-.7 0-1.4-.2-2-.6s-1.1-1-1.3-1.6c-.3-.7-.3-1.4-.2-2.1s.5-1.3 1-1.8m7.9-4.1c-.6 0-1.1.5-1.1 1.1s.5 1.1 1.1 1.1 1.1-.5 1.1-1.1-.5-1.1-1.1-1.1"></path>
  </symbol></defs>
                            <use xlink:href="#iconInstagram"></use>
                        </svg>