<svg xmlns:xlink="http://www.w3.org/1999/xlink" xmlns="http://www.w3.org/2000/svg" class="c-nav-desktop-drawer__sub-link__icon" width="64"  height="64" ><defs><symbol xmlns="http://www.w3.org/2000/svg" id="motorTax" viewBox="0 0 24 24">
    <path d="M7.27 7.6a.6.6 0 0 0-.6-.59H2.93v2.96l4-1.85c.2-.09.34-.3.34-.52m3.51-.89c-.31 0-.58.26-.58.58s.26.57.58.57.58-.25.58-.57-.25-.58-.58-.58"></path>
    <path d="M12.93 8.69V7a4.97 4.97 0 0 0-5-5 5 5 0 0 0-4.84 3.76h3.59a1.84 1.84 0 0 1 .77 3.5l-4.5 2.08a2 2 0 0 0 2.87 1.49l6.56-3.25a1 1 0 0 0 .54-.89m-2.15.26a1.65 1.65 0 1 1 0-3.32 1.65 1.65 0 0 1 0 3.32"></path>
    <path d="M18.11 2h-6.29q.34.25.65.57A6.3 6.3 0 0 1 14.27 7v1.69c0 .89-.5 1.7-1.3 2.1l-6.56 3.25-.36.15v6.64c0 .43.24.83.63 1.04q.27.13.55.13.36 0 .66-.2l1.92-1.32c.35-.24.81-.24 1.17 0l1.91 1.32q.31.2.66.2h.02q.35 0 .66-.2l1.91-1.32c.36-.24.82-.24 1.17 0l1.92 1.32a1.2 1.2 0 0 0 1.21.07c.4-.21.63-.61.63-1.04V4.96A2.96 2.96 0 0 0 18.11 2m-5.97 11.77c.41 0 .75.34.75.75s-.34.75-.75.75-.75-.34-.75-.75.34-.75.75-.75m.3 4.76a.57.57 0 0 1-.8.07.57.57 0 0 1-.08-.81l3.12-3.72c.2-.24.57-.27.81-.07s.28.57.07.81zm2.54.28c-.42 0-.76-.34-.76-.75s.34-.75.75-.75.75.34.75.75-.34.75-.75.75"></path>
  </symbol></defs>
                                        <use xlink:href="#motorTax"></use>
                                    </svg>