<svg xmlns:xlink="http://www.w3.org/1999/xlink" xmlns="http://www.w3.org/2000/svg" class="c-nav-desktop-drawer__sub-link__icon" width="64"  height="64" ><defs><symbol xmlns="http://www.w3.org/2000/svg" xml:space="preserve" id="motorTrafficFines" x="0" y="0" version="1.1" viewBox="0 0 24 24">
    <path d="M21.2 18.3c-.2-.2-.4-.3-.5-.4 0 0-1.6-.1-2.8-.1-1.8 0-4.2.3-6.4.7-1.6.3-3.3.8-3.3.8.3.1 1.1.4 2.4.7 1.1.2 3 .4 4.9.4 4.4 0 5.9-.7 6.1-1.3.2-.3-.1-.5-.4-.8m-.5-1.6h.1c.2-.7.4-1.6.8-3.1.7-2.9 1-6.3-4.9-5.2-1.1.2-2.1.5-3.2.9v1.1c0 .9-.5 1.7-1.3 2.1l-6.5 3.2c.1.4.3.9.6 1.2l1.1 1.4.6-.2c.4 0 6.7-1.8 12.7-1.4M18 13.3c0-.8.6-1.5 1.3-1.5s1.3.7 1.3 1.5-.6 1.5-1.3 1.5-1.3-.7-1.3-1.5m-11.6-4c0-.3-.3-.6-.6-.6H2v3l4.1-1.9c.2 0 .3-.3.3-.5m3.6-.9c-.3 0-.6.3-.6.6s.3.6.6.6.6-.3.6-.6-.3-.6-.6-.6"></path>
    <path d="M12.2 10.4V8.7a5.15 5.15 0 0 0-5.1-5.1c-2.4 0-4.4 1.6-4.9 3.8h3.7c1 0 1.9.8 1.9 1.9 0 .7-.4 1.4-1.1 1.7L2 13.1c.2 1.3 1.7 2.1 2.9 1.5l6.7-3.3c.4-.1.6-.5.6-.9m-2.2.3c-.9 0-1.7-.8-1.7-1.7s.8-1.7 1.7-1.7 1.7.8 1.7 1.7-.8 1.7-1.7 1.7"></path>
  </symbol></defs>
                                        <use xlink:href="#motorTrafficFines"></use>
                                    </svg>