<svg xmlns:xlink="http://www.w3.org/1999/xlink" xmlns="http://www.w3.org/2000/svg" class="c-nav-desktop-drawer__sub-link__icon" width="64"  height="64" ><defs><symbol xmlns="http://www.w3.org/2000/svg" id="najiServicePlateNumberHistoryInquiry" viewBox="0 0 24 24">
    <path d="M6.69 6.3H17.3a3 3 0 0 1 2.97 2.97v.86H3.72v-.86A3 3 0 0 1 6.7 6.3"></path>
    <path d="M6.69 6.3H17.3a3 3 0 0 1 2.97 2.97v.86H3.72v-.86A3 3 0 0 1 6.7 6.3M8.5 2c-1.14 0-2.1.57-2.1 1.34.29-.1.67-.1 1.05-.1h9c.38 0 .77 0 1.05.1 0-.77-.95-1.34-2.1-1.34zM5.35 5.63c.1-1.05.96-1.81 2.1-1.81h9c1.15 0 2 .76 2.1 1.81-.28-.1-.47-.1-.76-.1H6.1c-.28 0-.47.1-.76.1m6.33 5.84H3.71v6.6c-.1 2.68 1.53 4.02 3.64 3.93h9.28c2.4 0 3.73-1.73 3.64-3.93v-6.6zM6.4 19.8c-.29 0-.48-.2-.48-.48s.2-.48.48-.48.48.2.48.48-.29.48-.48.48m2.2-.1h-.76v-3.64h.76zm2.87 0-.67-1.34h-.38v1.34h-.77v-3.64h1.25c.67 0 1.34.3 1.34 1.15 0 .58-.2.86-.58 1.05l.77 1.44zm2.2.1c-.28 0-.47-.2-.47-.48s.19-.48.48-.48.47.2.47.48-.19.48-.47.48"></path>
    <path d="M10.33 16.73v.96h.38c.38 0 .67-.19.67-.57s-.2-.39-.67-.39z"></path>
  </symbol></defs>
                                        <use xlink:href="#najiServicePlateNumberHistoryInquiry"></use>
                                    </svg>