<svg xmlns:xlink="http://www.w3.org/1999/xlink" xmlns="http://www.w3.org/2000/svg" class="c-nav-desktop-drawer__sub-link__icon" width="64"  height="64" ><defs><symbol xmlns="http://www.w3.org/2000/svg" id="negativePoint" viewBox="0 0 24 24">
    <path d="m20.6 15.76-3.8.44s1.82 1.15 1.82 3.32c0 1-.32 1.7-.66 2.2a.7.7 0 0 1-1.22-.17 9 9 0 0 0-2.91-3.61c-1.42-1.11-3-1.62-3.78-1.96a1 1 0 0 1-.58-.87v-2.24A6.35 6.35 0 0 0 13.42 7l3.25-.67a2.5 2.5 0 0 1 2.83 1.53l2.32 5.85a1.5 1.5 0 0 1-1.22 2.04M8.5 13.17v1.74c0 .52-.42.95-.95.95h-.96a.96.96 0 0 1-.96-.95v-1.74a6 6 0 0 0 2.88 0"></path>
    <path d="M7.08 2a5 5 0 1 0 0 10 5 5 0 0 0 0-10M9.4 7.67H4.75a.67.67 0 0 1 0-1.34H9.4a.67.67 0 0 1 0 1.34"></path>
  </symbol></defs>
                                        <use xlink:href="#negativePoint"></use>
                                    </svg>