<svg xmlns:xlink="http://www.w3.org/1999/xlink" xmlns="http://www.w3.org/2000/svg" class="c-home-category__link__icon" aria-hidden="true" width="64"  height="64" ><defs><symbol xmlns="http://www.w3.org/2000/svg" id="phone" viewBox="0 0 24 24">
    <path d="m19.74 16.84-.07-.51a7 7 0 0 0-3.3-5.02l-.4-.24a3 3 0 0 0-1.1-.38V9.51c0-.37-.3-.68-.68-.68s-.67.3-.67.68v1.12h-3.07V9.51c0-.37-.3-.68-.67-.68s-.68.3-.68.68v1.18q-.6.08-1.11.38l-.4.24a7 7 0 0 0-3.3 5.02l-.06.51a3 3 0 0 0 2.98 3.4h9.54a3 3 0 0 0 2.98-3.4m-7.75.78c-1.38 0-2.5-1.01-2.5-2.25s1.12-2.25 2.5-2.25 2.5 1.01 2.5 2.25-1.12 2.25-2.5 2.25"></path>
    <path d="M21.28 6.72q-.6-.48-1.26-.89c-2.1-1.3-5.17-2.07-8.03-2.07s-5.93.77-8.03 2.07q-.68.4-1.26.89a1.97 1.97 0 0 0-.08 2.96l.93.89a1 1 0 0 0 1.18.15l1.09-.6a1 1 0 0 0 .52-.88v-.9c0-.4.23-.77.6-.92a14.4 14.4 0 0 1 10.14 0c.37.15.6.52.6.92v.9c0 .36.2.7.52.88l1.09.6c.38.21.86.15 1.18-.15l.92-.89c.85-.82.84-2.22-.08-2.96z"></path>
  </symbol></defs>
                    <use xlink:href="#phone"></use>
                </svg>