<svg xmlns:xlink="http://www.w3.org/1999/xlink" xmlns="http://www.w3.org/2000/svg" class="c-nav-desktop-drawer__sub-link__icon" width="64"  height="64" ><defs><symbol xmlns="http://www.w3.org/2000/svg" id="plateNumber" viewBox="0 0 24 24">
    <path d="M10 3.86h9.1a2.95 2.95 0 0 1 2.95 2.94v1.33h-8.8A6.3 6.3 0 0 0 10 3.85m-3.05.4a5 5 0 1 0 0 10 5 5 0 0 0 0-10m2.7 3.97-2.86 2.86q-.17.16-.41.17c-.24 0-.3-.06-.41-.17L4.43 9.54c-.22-.22-.22-.6 0-.81s.59-.22.8 0l1.14 1.13L8.83 7.4a.6.6 0 0 1 .8 0c.23.22.23.59 0 .8z"></path>
    <path d="M13.4 9.48A6.36 6.36 0 0 1 3.94 15v2.2a2.94 2.94 0 0 0 2.94 2.94h12.28c1.6 0 2.89-1.29 2.89-2.89V9.47zm-1.52 8.67c-.3 0-.5-.23-.5-.52s.2-.52.5-.52.5.23.5.52-.21.52-.5.52m2.38-.07h-.83V14.4h.83zm3.19 0-.7-1.32h-.46v1.32h-.83V14.4h1.32c.78 0 1.42.27 1.42 1.15 0 .54-.26.88-.66 1.06l.83 1.47zm2.38.07c-.3 0-.5-.23-.5-.52s.2-.52.5-.52.5.23.5.52-.21.52-.5.52"></path>
    <path d="M16.72 15.06h-.43v1.03h.43q.66 0 .67-.55c0-.55-.23-.49-.67-.49z"></path>
  </symbol></defs>
                                        <use xlink:href="#plateNumber"></use>
                                    </svg>