<svg xmlns:xlink="http://www.w3.org/1999/xlink" xmlns="http://www.w3.org/2000/svg" class="c-nav-desktop__btns-icon-wrapper" aria-hidden="true" width="32"  height="32" ><defs><symbol xmlns="http://www.w3.org/2000/svg" viewBox="0 0 24 24" id="iconProfile">
    <path d="M17.86 12.72a6 6 0 0 0-1.78-2.14l-.05-.04-.05.05q-.24.24-.54.44-.28.22-.58.4l-.11.06.1.07a4.5 4.5 0 0 1 2.12 3.88v2.74a2.27 2.27 0 0 1-2.27 2.27H9.3a2.27 2.27 0 0 1-2.27-2.27v-2.74a4.6 4.6 0 0 1 2.19-3.88l.1-.07-.1-.06a6 6 0 0 1-1.14-.85L8 10.55l-.05.04a6 6 0 0 0-2.46 4.86v2.74a3.76 3.76 0 0 0 3.79 3.79h5.42a3.77 3.77 0 0 0 3.77-3.79v-2.74c0-.94-.2-1.88-.63-2.72Z"></path>
    <path d="M9.54 10.15a4.4 4.4 0 0 0 5.6-.55 4.4 4.4 0 0 0 .54-5.6 4.4 4.4 0 0 0-6.81-.67 4.42 4.42 0 0 0 .67 6.82m3.59-.93A2.93 2.93 0 0 1 9.1 7.07 2.94 2.94 0 0 1 12 3.55a2.97 2.97 0 0 1 2.95 2.95 2.9 2.9 0 0 1-1.82 2.72m-.56 3.58a.8.8 0 0 0-.88-.19.8.8 0 0 0-.44.78v4.28a.75.75 0 0 0 .75.75q.15 0 .28-.06a.8.8 0 0 0 .41-.4q.06-.15.06-.3V13.4a.8.8 0 0 0-.19-.6Z"></path>
  </symbol></defs>
          <use xlink:href="#iconProfile"></use>
        </svg>