<svg xmlns:xlink="http://www.w3.org/1999/xlink" xmlns="http://www.w3.org/2000/svg" class="c-nav-desktop-drawer__sub-link__icon" width="64"  height="64" ><defs><symbol xmlns="http://www.w3.org/2000/svg" xml:space="preserve" id="shahrdari" x="0" y="0" version="1.1" viewBox="0 0 24 24">
    <path d="m12.7 12.3-3.3-1.9c-.9-.5-2.1-.5-3 0L3 12.3c-.6.4-1 1-1 1.7v6.6c0 .1.1.1.2.1H6c.1 0 .2-.1.2-.1v-4c0-.4.3-.7.8-.7h1.8c.4 0 .8.3.8.7v4c0 .1.1.1.1.1h3.9c.1 0 .1-.1.1-.1v-6.5c0-.8-.4-1.4-1-1.8"></path>
    <path d="M19.5 3.2h-6.7c-1.4 0-2.5 1.1-2.5 2.5v3.4c0 .1 0 .2.1.2l2.9 1.7c1 .6 1.7 1.7 1.7 2.9v6.6c0 .1.1.2.1.2h6.7c.1 0 .2-.1.2-.2V5.8c0-1.4-1.1-2.6-2.5-2.6m-4.7 5.4c0 .4-.3.7-.7.7s-.6-.3-.6-.7V6.4c0-.4.3-.7.7-.7s.7.3.7.7zm2.7-2.2c0-.4.3-.7.7-.7s.7.3.7.7v2.1c0 .4-.3.7-.7.7s-.7-.2-.7-.6zm1.4 8.8c0 .4-.3.7-.7.7s-.7-.3-.7-.7V13c0-.4.3-.7.7-.7s.7.3.7.7z"></path>
  </symbol></defs>
                                        <use xlink:href="#shahrdari"></use>
                                    </svg>