<svg xmlns:xlink="http://www.w3.org/1999/xlink" xmlns="http://www.w3.org/2000/svg" class="c-nav-desktop-drawer__root-link__icon c-nav-desktop-drawer__root-link__icon--mini" aria-hidden="true" width="24"  height="24" ><defs><symbol xmlns="http://www.w3.org/2000/svg" viewBox="0 0 24 24" id="iconSupport">
    <path d="M21.26 10.86c-.42-.52-1-.89-1.64-1.05a7.7 7.7 0 0 0-7.72-7.28A7.7 7.7 0 0 0 4.18 9.8a3.07 3.07 0 0 0 .75 5.97.74.74 0 0 0 .71-.75v-4.68a6.2 6.2 0 0 1 6.26-6.26 6.2 6.2 0 0 1 6.26 6.26v4.35a2.2 2.2 0 0 1-1.48 2.1v-6.42a4.76 4.76 0 0 0-4.8-4.79 4.76 4.76 0 0 0-4.8 4.8v6.29a4.8 4.8 0 0 0 7.17 4.16 4.8 4.8 0 0 0 2.1-2.46 3.7 3.7 0 0 0 3.12-2.66 3.06 3.06 0 0 0 2.46-2.97 3 3 0 0 0-.67-1.89Zm-.82 1.9a1.5 1.5 0 0 1-.8 1.34v-2.7a1.5 1.5 0 0 1 .8 1.35M4.16 11.4v2.7a1.55 1.55 0 0 1-.55-2.18q.2-.34.55-.52m8.99 4.66a1.5 1.5 0 0 0-1.56-.64 1.5 1.5 0 0 0-1.2 1.2 1.5 1.5 0 0 0 1.5 1.8h2.8a3.3 3.3 0 0 1-2.8 1.56 3.3 3.3 0 0 1-3.3-3.3v-6.3a3.3 3.3 0 0 1 3.3-3.3 3.3 3.3 0 0 1 3.32 3.3v6.56h-1.8v-.03q-.01-.46-.26-.85"></path>
  </symbol></defs>
                <use xlink:href="#iconSupport"></use>
            </svg>