<svg xmlns:xlink="http://www.w3.org/1999/xlink" xmlns="http://www.w3.org/2000/svg" class="c-nav-desktop-drawer__sub-link__icon" width="64"  height="64" ><defs><symbol xmlns="http://www.w3.org/2000/svg" id="technicalInspection" viewBox="0 0 24 24">
    <path d="M7.44 13.4a1.7 1.7 0 1 0 0-3.4 1.7 1.7 0 0 0 0 3.4m8.3 0a1.7 1.7 0 1 0 0-3.4 1.7 1.7 0 0 0 0 3.4"></path>
    <path d="m20.2 6.92-1.74-.27a2 2 0 0 1-1.1-.6l-1.79-1.88a3 3 0 0 0-2.22-.96H9.82c-.84 0-1.65.36-2.23.98L5.4 6.53H4.11c-1.13 0-2.04.91-2.04 2.03v1.57c0 .56.46 1.02 1.02 1.02h1.54a2.86 2.86 0 0 1 5.62 0h2.68a2.86 2.86 0 0 1 5.62 0h2.36c.56 0 1.02-.46 1.02-1.02v-1.2c0-1-.74-1.86-1.73-2.02Zm.14 2.3h-1.38a.59.59 0 0 1 0-1.18h1.38a.59.59 0 0 1 0 1.18m-.3 7.56h1.57c.13 0 .24-.11.24-.24v-.98a.24.24 0 0 0-.24-.24h-1.94q-.55 0-1.02.28l-1.55.94q-.74.43-1.59.45H9.33c-.87 0-1.76-.29-2.36-.93a2.7 2.7 0 0 0-2.38-.85 2.8 2.8 0 1 0 2.38 4.72 2.8 2.8 0 0 1 2-.92h6.54q.85 0 1.6.45l1.54.94q.46.28 1.02.28h1.94c.13 0 .25-.1.25-.24v-.98a.25.25 0 0 0-.25-.24h-1.57a1.22 1.22 0 1 1 0-2.45zM5.95 19.02q-.39.4-1 .4a1.43 1.43 0 1 1 1-.4"></path>
  </symbol></defs>
                                        <use xlink:href="#technicalInspection"></use>
                                    </svg>