<svg xmlns:xlink="http://www.w3.org/1999/xlink" xmlns="http://www.w3.org/2000/svg" class="c-nav-desktop-drawer__sub-link__icon" width="64"  height="64" ><defs><symbol xmlns="http://www.w3.org/2000/svg" id="thirdPartyInquiry" viewBox="0 0 24 24">
    <path  d="M18.23 2.01H8.2a2.84 2.84 0 0 0-2.84 2.84v5.51l.93-.36q.31-.1.66-.1c.35 0 .44.04.66.1.41.15 1.3.49 2.57 1.13.73.37 1.32.77 1.62.99a2 2 0 0 1 .85 1.63v1.42c0 3.41-1.3 5.56-2.76 6.8h8.24a3.2 3.2 0 0 0 3.2-3.2V5.12a3.1 3.1 0 0 0-3.1-3.1m-1.8 8.02h-6.16c-.34 0-.62-.32-.62-.71s.28-.73.62-.73h6.16c.35 0 .62.33.62.73s-.27.71-.62.71m0-3.56h-6.16c-.34 0-.62-.3-.62-.71s.28-.71.62-.71h6.16c.35 0 .62.31.62.7s-.27.72-.62.72"></path>
    <path  d="M10.97 13.29c-.29-.2-.82-.55-1.44-.87a20 20 0 0 0-2.4-1.06.6.6 0 0 0-.38 0c-.35.12-1.19.44-2.4 1.06-.62.32-1.15.67-1.44.87a.6.6 0 0 0-.25.47v1.42c0 5.9 4.27 6.81 4.27 6.81s4.27-.9 4.27-6.8v-1.43a.6.6 0 0 0-.24-.47zm-1.2 2.03-3.05 3.05q-.17.18-.43.18c-.26 0-.32-.06-.44-.18L4.2 16.73a.6.6 0 0 1 0-.86.6.6 0 0 1 .86 0l1.2 1.2 2.63-2.62c.23-.24.62-.24.86 0s.23.63 0 .86z"></path>
  </symbol></defs>
                                        <use xlink:href="#thirdPartyInquiry"></use>
                                    </svg>