<svg xmlns:xlink="http://www.w3.org/1999/xlink" xmlns="http://www.w3.org/2000/svg" class="c-nav-desktop-drawer__sub-link__icon" width="64"  height="64" ><defs><symbol xmlns="http://www.w3.org/2000/svg" id="topUpCharge" viewBox="0 0 24 24">
    <path fill-rule="evenodd" d="M11.18 11.36H9.25a.65.65 0 0 0-.65.65v5.49c0 .36.3.64.65.64h1.93q.13-.02.15-.15v-6.48a.15.15 0 0 0-.15-.15m4.07 4.07h-2.43a.15.15 0 0 0-.15.15v2.43q.02.13.15.14h1.93c.36 0 .65-.28.65-.64v-1.93a.15.15 0 0 0-.15-.15"></path>
    <path fill-rule="evenodd" d="M12.57 2.03H7.45a2.93 2.93 0 0 0-2.93 2.93v14.08a2.93 2.93 0 0 0 2.93 2.93h9.1a2.93 2.93 0 0 0 2.93-2.93V8.81zm4.14 15.47a2 2 0 0 1-1.99 2h-5.5a2 2 0 0 1-2-2V12a2 2 0 0 1 2-2h5.5a2 2 0 0 1 2 2z"></path>
    <path fill-rule="evenodd" d="M14.75 11.36h-1.93a.15.15 0 0 0-.15.15v2.43q.02.14.15.15h2.42c.08 0 .15-.08.15-.15V12a.65.65 0 0 0-.64-.65"></path>
  </symbol></defs>
                                        <use xlink:href="#topUpCharge"></use>
                                    </svg>