<svg xmlns:xlink="http://www.w3.org/1999/xlink" xmlns="http://www.w3.org/2000/svg" class="c-nav-desktop-drawer__sub-link__icon" width="64"  height="64" ><defs><symbol xmlns="http://www.w3.org/2000/svg" id="topUpInternetPackage" viewBox="0 0 24 24">
    <path fill-rule="evenodd" d="M15.54 2H8.47a3 3 0 0 0-3 3v14a3 3 0 0 0 3 3h7.07a3 3 0 0 0 3-3V5a3 3 0 0 0-3-3m-4.61 1.83h2.15a.67.67 0 0 1 0 1.34h-2.15a.67.67 0 0 1 0-1.34M12 15.56c-.41 0-.75-.34-.75-.75s.34-.75.75-.75.75.34.75.75-.34.75-.75.75m2-2.06q-.18.17-.41.17c-.23 0-.3-.06-.41-.17a1.7 1.7 0 0 0-2.37 0 .6.6 0 0 1-.81 0 .6.6 0 0 1 0-.81 2.8 2.8 0 0 1 3.99 0c.22.22.22.59 0 .81m1.59-1.62q-.17.17-.41.17c-.24 0-.3-.06-.41-.17a3.93 3.93 0 0 0-5.55 0c-.22.22-.6.22-.81 0s-.22-.59 0-.81a5.03 5.03 0 0 1 7.17 0c.22.22.22.59 0 .81"></path>
  </symbol></defs>
                                        <use xlink:href="#topUpInternetPackage"></use>
                                    </svg>