<svg xmlns:xlink="http://www.w3.org/1999/xlink" xmlns="http://www.w3.org/2000/svg" class="c-nav-desktop-drawer__sub-link__icon" width="64"  height="64" ><defs><symbol xmlns="http://www.w3.org/2000/svg" xml:space="preserve" viewBox="0 0 24 24" id="trafficFines">
    <g >
      <path d="M21.2 18.3c-.3-.3-.6-.5-.6-.5-5.9-.5-12.4 1.5-12.4 1.5s.9.4 2.5.7c1.1.2 3 .4 4.9.4 4.4 0 5.9-.7 6.1-1.3.1-.3-.2-.5-.5-.8m-.5-1.6h.1c.2-.7.4-1.6.8-3.1.7-2.9 1-6.3-4.8-5.2q-1.65.3-3.3.9c-.4 3.2-3.1 5.7-6.4 5.7q-1.5 0-2.7-.6l3.2 3.8.6-.2c.2.1 6.6-1.7 12.5-1.3M18 13.3c0-.8.6-1.5 1.3-1.5s1.3.7 1.3 1.5-.6 1.5-1.3 1.5-1.3-.6-1.3-1.5m-11.6-7c.2-.1.4-.1.6-.1s.5 0 .7.1c.9.2 1.6.9 1.8 1.7h2.6c-.3-2.2-2.1-4-4.4-4.3-.2-.1-.4-.1-.7-.1-.2 0-.5 0-.7.1C4.1 4 2.3 5.8 2 8h2.6c.2-.8.9-1.5 1.8-1.7"></path>
      <path d="M6.4 11.2c-.8-.2-1.5-.9-1.8-1.8H2c.3 2.3 2.1 4 4.4 4.4zm5.7-1.8H9.5c-.2.9-.9 1.5-1.8 1.8v2.6c2.3-.3 4.1-2.1 4.4-4.4m-3.9-.7c0-.7-.5-1.2-1.2-1.2S5.9 8 5.9 8.7s.5 1.2 1.2 1.2 1.1-.5 1.1-1.2"></path>
    </g>
  </symbol></defs>
                                        <use xlink:href="#trafficFines"></use>
                                    </svg>