<svg xmlns:xlink="http://www.w3.org/1999/xlink" xmlns="http://www.w3.org/2000/svg" class="c-nav-desktop-drawer__sub-link__icon" width="64"  height="64" ><defs><symbol xmlns="http://www.w3.org/2000/svg" viewBox="0 0 24 24" id="trafficPlan">
    <path d="M15.265 4.7h-6.54c-2.21 0-4 1.79-4 4v6.6c0 2.21 1.79 4 4 4h6.54c2.21 0 4-1.79 4-4V8.7c0-2.21-1.79-4-4-4m-3.27 10.8c-1.93 0-3.5-1.57-3.5-3.5s1.57-3.5 3.5-3.5 3.5 1.57 3.5 3.5-1.57 3.5-3.5 3.5"></path>
    <path d="M21.295 10.32a.67.67 0 0 1-.67-.67V7.67c0-2.38-1.94-4.32-4.32-4.32h-8.61c-2.38 0-4.32 1.94-4.32 4.32v1.98a.67.67 0 0 1-1.34 0V7.67c0-3.13 2.55-5.67 5.67-5.67h8.59c3.13 0 5.67 2.55 5.67 5.67v1.98c0 .37-.3.67-.67.67m-7.08 10.33h-4.43c-.37 0-.67.3-.67.67v.01c0 .37.3.67.67.67h4.43c.37 0 .67-.3.67-.67v-.01c0-.37-.3-.67-.67-.67"></path>
    <path d="M11.995 14.15a2.15 2.15 0 1 0-.001-4.301 2.15 2.15 0 0 0 .001 4.301"></path>
  </symbol></defs>
                                        <use xlink:href="#trafficPlan"></use>
                                    </svg>