<svg xmlns:xlink="http://www.w3.org/1999/xlink" xmlns="http://www.w3.org/2000/svg" class="c-nav-desktop-drawer__sub-link__icon" width="64"  height="64" ><defs><symbol xmlns="http://www.w3.org/2000/svg" xml:space="preserve" id="vehicleAuthenticity" x="0" y="0" version="1.1" viewBox="0 0 24 24">
    <path d="m20.4 12.6 1-.4c.5-.2.7-.7.5-1.2s-.7-.7-1.2-.5l-1.2.5-.7-1.8c-.8-1.8-2.5-3-4.5-3h-.8c.1.3.1.6.1.9v.6h.7c1.3 0 2.5.8 3 2l.7 1.7h-6c-1.2 1.4-3 2.2-4.9 2.2-1.2 0-2.3-.3-3.2-.9-.8.7-1.3 1.7-1.3 2.9V20c0 .9.6 1.8 1.5 1.9 1.2.2 2.1-.7 2.1-1.8v-1h12.1v1c0 1.1 1 2 2.1 1.8.9-.1 1.5-1 1.5-1.9v-4.2c.1-1.3-.5-2.5-1.5-3.2M9.5 16.8H6.9c-.5 0-.9-.4-.9-.9s.4-.9.9-.9h2.7c.5 0 .9.4.9.9s-.5.9-1 .9m8.1 0H15c-.5 0-.9-.4-.9-.9s.4-.9.9-.9h2.7c.5 0 .9.4.9.9-.1.5-.5.9-1 .9"></path>
    <path d="M7.1 12.2c2.8 0 5.1-2.3 5.1-5.1s-2.3-5-5.1-5S2 4.3 2 7.1s2.3 5.1 5.1 5.1M4.5 6.6c.2-.2.6-.2.8 0l1.1 1.1L9 5.3c.2-.3.6-.3.8 0s.2.6 0 .8L6.9 9c-.1.1-.2.2-.4.2s-.3-.1-.4-.2L4.5 7.4c-.2-.2-.2-.6 0-.8"></path>
  </symbol></defs>
                                        <use xlink:href="#vehicleAuthenticity"></use>
                                    </svg>