<svg xmlns:xlink="http://www.w3.org/1999/xlink" xmlns="http://www.w3.org/2000/svg" class="c-nav-desktop-drawer__sub-link__icon" width="64"  height="64" ><defs><symbol xmlns="http://www.w3.org/2000/svg" viewBox="0 0 24 24" id="water">
    <path d="M17.245 8.08h-2.75s-.09-.02-.12-.06a3.96 3.96 0 0 0-2.51-1.61V5.33c.36-.17.65-.46.83-.83h1.62c.41 0 .75-.34.75-.75s-.34-.75-.75-.75h-1.62a1.747 1.747 0 0 0-3.16 0h-1.62c-.41 0-.75.34-.75.75s.34.75.75.75h1.62c.17.36.46.65.82.82V6.4c-1.03.2-1.93.79-2.51 1.61q-.045.06-.12.06h-3.46c-.83 0-1.5.67-1.5 1.5v1.5c0 .83.67 1.5 1.5 1.5h3.46s.09.02.12.06c.72 1.02 1.92 1.69 3.26 1.69s2.54-.67 3.26-1.69q.045-.06.12-.06h2.1c.08 0 .15.07.15.15v1.26c0 .83.67 1.5 1.5 1.5h1.5c.83 0 1.5-.67 1.5-1.5v-1.91c0-2.21-1.79-4-4-4zM20.995 20c0-.95-1.46-2.81-1.89-3.33a.152.152 0 0 0-.23 0c-.42.52-1.89 2.38-1.89 3.33 0 1.1.9 2 2 2s2-.9 2-2z"></path>
  </symbol></defs>
                                        <use xlink:href="#water"></use>
                                    </svg>